# xmcd CD database file
#
# Track frame offsets:
#	150
#	21255
#	33937
#	41157
#	54922
#	59825
#	77555
#	96260
#	109465
#	123282
#	145022
#
# Disc length: 2192 seconds
#
# Revision: 0
# Processed by: cddbd v1.5.1PL0 Copyright (c) Steve Scherf et al.
# Submitted via: CDex 1.51
#
DISCID=95088e0b
DTITLE=analers - PITFALL TRAP
DYEAR=2003
DGENRE=Rock
TTITLE0=FAT_DOG
TTITLE1=Chain_Smoker
TTITLE2=DOKABEN
TTITLE3=バデグゴボウガメ
TTITLE4=WADABEN
TTITLE5=White_House_at_Night(album_ver)
TTITLE6=Bye_Bye_Baseballstar
TTITLE7=Comembert_Beer_BlueMountain
TTITLE8=砂場
TTITLE9=ロジウラ
TTITLE10=客のいないプール
EXTD=YEAR: 2003
EXTT0=
EXTT1=
EXTT2=
EXTT3=
EXTT4=
EXTT5=
EXTT6=
EXTT7=
EXTT8=
EXTT9=
EXTT10=
PLAYORDER=
